<?xml version="1.0" encoding="UTF-8" standalone="no"?>
<!DOCTYPE svg PUBLIC "-//W3C//DTD SVG 1.1//EN" "http://www.w3.org/Graphics/SVG/1.1/DTD/svg11.dtd">
<svg width="100%" height="100%" viewBox="0 0 100 138" version="1.1" xmlns="http://www.w3.org/2000/svg" xmlns:xlink="http://www.w3.org/1999/xlink" xml:space="preserve" xmlns:serif="http://www.serif.com/" style="fill-rule:evenodd;clip-rule:evenodd;stroke-linejoin:round;stroke-miterlimit:2;">
    <g transform="matrix(0.319156,0,0,2.3525,-96.525,-98.9342)">
        <g transform="matrix(1.2458,0,0,0.119123,-2189.73,5.55337)">
            <rect x="2006.13" y="309.987" width="241.775" height="32.161" style="fill:rgb(119,119,119);fill-opacity:0.8;"/>
        </g>
        <g transform="matrix(1.2458,0,0,0.119123,-2189.73,20.5158)">
            <rect x="2006.13" y="309.987" width="241.775" height="32.161" style="fill:rgb(119,119,119);fill-opacity:0.8;"/>
        </g>
        <g transform="matrix(1.2458,0,0,0.119123,-2189.73,35.3468)">
            <rect x="2006.13" y="309.987" width="241.775" height="32.161" style="fill:rgb(119,119,119);fill-opacity:0.8;"/>
        </g>
        <g transform="matrix(0.518579,0,0,0.118927,-730.833,13.2142)">
            <rect x="2006.13" y="309.987" width="241.775" height="32.161" style="fill:rgb(119,119,119);fill-opacity:0.8;"/>
        </g>
        <g transform="matrix(0.523189,0,0,0.118927,-565.374,13.2205)">
            <rect x="2006.13" y="309.987" width="241.775" height="32.161" style="fill:rgb(119,119,119);fill-opacity:0.8;"/>
        </g>
        <g transform="matrix(0.518579,0,0,0.118927,-730.833,27.8642)">
            <rect x="2006.13" y="309.987" width="241.775" height="32.161" style="fill:rgb(119,119,119);fill-opacity:0.8;"/>
        </g>
        <g transform="matrix(0.523189,0,0,0.118927,-565.374,27.8704)">
            <rect x="2006.13" y="309.987" width="241.775" height="32.161" style="fill:rgb(119,119,119);fill-opacity:0.8;"/>
        </g>
        <g transform="matrix(0.518579,0,0,0.118927,-730.833,42.5223)">
            <rect x="2006.13" y="309.987" width="241.775" height="32.161" style="fill:rgb(119,119,119);fill-opacity:0.8;"/>
        </g>
        <g transform="matrix(0.523189,0,0,0.118927,-565.374,42.5285)">
            <rect x="2006.13" y="309.987" width="241.775" height="32.161" style="fill:rgb(119,119,119);fill-opacity:0.8;"/>
        </g>
    </g>
    <g transform="matrix(1.05803,0,0,1.05803,-938.241,-47.6011)">
        <g transform="matrix(1.25488,0,0,1.22779,885.524,174.145)">
            <text x="0px" y="0px" style="font-family: 'Abel', sans-serif;font-size:27px;fill:rgb(119,119,119);">m</text>
        </g>
        <g transform="matrix(1.25501,0,0,1.22779,928.45,174.145)">
            <text x="0px" y="0px" style="font-family: 'Abel', sans-serif;font-size:27px;fill:rgb(119,119,119);">a</text>
        </g>
        <g transform="matrix(1.25501,0,0,1.22779,964.323,174.145)">
            <text x="0px" y="0px" style="font-family: 'Abel', sans-serif;font-size:27px;fill:rgb(119,119,119);">o</text>
        </g>
    </g>
</svg>
