<?xml version="1.0" encoding="UTF-8" standalone="no"?>
<!DOCTYPE svg PUBLIC "-//W3C//DTD SVG 1.1//EN" "http://www.w3.org/Graphics/SVG/1.1/DTD/svg11.dtd">
<svg width="100%" height="100%" viewBox="0 0 342 218" version="1.1" xmlns="http://www.w3.org/2000/svg" xmlns:xlink="http://www.w3.org/1999/xlink" xml:space="preserve" xmlns:serif="http://www.serif.com/" style="fill-rule:evenodd;clip-rule:evenodd;stroke-linejoin:round;stroke-miterlimit:2;">
    <g transform="matrix(0.682933,0,0,5.0339,-267.331,-211.7)">
        <g opacity="0.6">
            <g transform="matrix(0.992659,0,0,0.0970224,-1469.64,11.9792)">
                <rect x="2006.13" y="309.987" width="241.775" height="32.161" style="fill:white;fill-opacity:0.8;"/>
            </g>
            <g transform="matrix(0.992659,0,0,0.0970224,-1469.64,24.1657)">
                <rect x="2006.13" y="309.987" width="241.775" height="32.161" style="fill:white;fill-opacity:0.8;"/>
            </g>
            <g transform="matrix(0.992659,0,0,0.0970224,-1469.64,36.2451)">
                <rect x="2006.13" y="309.987" width="241.775" height="32.161" style="fill:white;fill-opacity:0.8;"/>
            </g>
            <g transform="matrix(0.413207,0,0,0.0968625,-307.18,18.2187)">
                <rect x="2006.13" y="309.987" width="241.775" height="32.161" style="fill:white;fill-opacity:0.8;"/>
            </g>
            <g transform="matrix(0.41688,0,0,0.0968625,-175.341,18.2239)">
                <rect x="2006.13" y="309.987" width="241.775" height="32.161" style="fill:white;fill-opacity:0.8;"/>
            </g>
            <g transform="matrix(0.413207,0,0,0.0968625,-307.18,30.1507)">
                <rect x="2006.13" y="309.987" width="241.775" height="32.161" style="fill:white;fill-opacity:0.8;"/>
            </g>
            <g transform="matrix(0.41688,0,0,0.0968625,-175.341,30.1558)">
                <rect x="2006.13" y="309.987" width="241.775" height="32.161" style="fill:white;fill-opacity:0.8;"/>
            </g>
            <g transform="matrix(0.413207,0,0,0.0968625,-307.18,42.0893)">
                <rect x="2006.13" y="309.987" width="241.775" height="32.161" style="fill:white;fill-opacity:0.8;"/>
            </g>
            <g transform="matrix(0.41688,0,0,0.0968625,-175.341,42.0944)">
                <rect x="2006.13" y="309.987" width="241.775" height="32.161" style="fill:white;fill-opacity:0.8;"/>
            </g>
        </g>
    </g>
    <g transform="matrix(1.68413,0,0,1.53102,-1502.27,-35.9964)">
        <text x="891.108px" y="163.248px" style="font-family: 'Abel', sans-serif;font-size:13.003px;fill:white;fill-opacity:0.8;">...denn <tspan x="927.445px " y="163.248px ">d</tspan>ie <tspan x="946.454px 953.527px 956.391px " y="163.248px 163.248px 163.248px ">Din</tspan>ge <tspan x="978.441px " y="163.248px ">e</tspan>rschöpfen <tspan x="1037.55px " y="163.248px ">s</tspan>ich <tspan x="1062.52px " y="163.248px ">n</tspan>icht...</text>
    </g>
</svg>
