<?xml version="1.0" encoding="UTF-8" standalone="no"?>
<!DOCTYPE svg PUBLIC "-//W3C//DTD SVG 1.1//EN" "http://www.w3.org/Graphics/SVG/1.1/DTD/svg11.dtd">
<svg width="100%" height="100%" viewBox="0 0 338 52" version="1.1" xmlns="http://www.w3.org/2000/svg" xmlns:xlink="http://www.w3.org/1999/xlink" xml:space="preserve" xmlns:serif="http://www.serif.com/" style="fill-rule:evenodd;clip-rule:evenodd;stroke-linejoin:round;stroke-miterlimit:2;">
    <g transform="matrix(1.45923,0,0,1.32657,-1230.64,-165.98)">
        <g>
            <g transform="matrix(1,0,0,1,891.108,163.248)">
                <text x="0px" y="0px" style="font-family:'Abel-Regular', 'Abel';font-size:13.017px;fill:rgb(128,128,128);">mineralische</text>
            </g>
            <g transform="matrix(1,0,0,1,958.445,163.248)">
                <text x="0px" y="0px" style="font-family:'Abel-Regular', 'Abel';font-size:13.017px;fill:rgb(128,128,128);">architektur</text>
            </g>
            <g transform="matrix(1,0,0,1,1017.63,163.248)">
                <text x="0px" y="0px" style="font-family:'Abel-Regular', 'Abel';font-size:13.017px;fill:rgb(128,128,128);">oberflächen</text>
            </g>
        </g>
    </g>
    <g transform="matrix(1.21276,0,0,1.21276,-1077.66,-157.526)">
        <g transform="matrix(0.9999,0,0,1,950.242,149.413)">
            <text x="0px" y="0px" style="font-family:'Abel-Regular', 'Abel';font-size:27px;fill:rgb(204,93,68);">m</text>
        </g>
        <g transform="matrix(1,0,0,1,982.825,149.413)">
            <text x="0px" y="0px" style="font-family:'Abel-Regular', 'Abel';font-size:27px;fill:rgb(204,93,68);">a</text>
        </g>
        <g transform="matrix(1,0,0,1,1009.42,149.413)">
            <text x="0px" y="0px" style="font-family:'Abel-Regular', 'Abel';font-size:27px;fill:rgb(204,93,68);">o</text>
        </g>
    </g>
    <g transform="matrix(0.212436,0,0,1.56586,-110.842,-65.8522)">
        <g transform="matrix(0.992659,0,0,0.0970224,-1469.64,11.9792)">
            <rect x="2006.13" y="309.987" width="241.775" height="32.161" style="fill:rgb(179,179,179);"/>
        </g>
        <g transform="matrix(0.992659,0,0,0.0970224,-1469.64,24.1657)">
            <rect x="2006.13" y="309.987" width="241.775" height="32.161" style="fill:rgb(179,179,179);"/>
        </g>
        <g transform="matrix(0.992659,0,0,0.0970224,-1469.64,36.2451)">
            <rect x="2006.13" y="309.987" width="241.775" height="32.161" style="fill:rgb(179,179,179);"/>
        </g>
        <g transform="matrix(0.413207,0,0,0.0968625,-307.18,18.2187)">
            <rect x="2006.13" y="309.987" width="241.775" height="32.161" style="fill:rgb(179,179,179);"/>
        </g>
        <g transform="matrix(0.41688,0,0,0.0968625,-175.341,18.2239)">
            <rect x="2006.13" y="309.987" width="241.775" height="32.161" style="fill:rgb(179,179,179);"/>
        </g>
        <g transform="matrix(0.413207,0,0,0.0968625,-307.18,30.1507)">
            <rect x="2006.13" y="309.987" width="241.775" height="32.161" style="fill:rgb(179,179,179);"/>
        </g>
        <g transform="matrix(0.41688,0,0,0.0968625,-175.341,30.1558)">
            <rect x="2006.13" y="309.987" width="241.775" height="32.161" style="fill:rgb(179,179,179);"/>
        </g>
        <g transform="matrix(0.413207,0,0,0.0968625,-307.18,42.0893)">
            <rect x="2006.13" y="309.987" width="241.775" height="32.161" style="fill:rgb(179,179,179);"/>
        </g>
        <g transform="matrix(0.41688,0,0,0.0968625,-175.341,42.0944)">
            <rect x="2006.13" y="309.987" width="241.775" height="32.161" style="fill:rgb(179,179,179);"/>
        </g>
    </g>
</svg>
